<svg width="61" height="61" viewBox="0 0 61 61" fill="none" xmlns="http://www.w3.org/2000/svg">
<g clip-path="url(#clip0_48_505)">
<path d="M30.1016 52.8867C42.528 52.8867 52.6016 42.8131 52.6016 30.3867C52.6016 17.9603 42.528 7.88672 30.1016 7.88672C17.6752 7.88672 7.60156 17.9603 7.60156 30.3867C7.60156 42.8131 17.6752 52.8867 30.1016 52.8867Z" stroke="white" stroke-width="3.75" stroke-linecap="round" stroke-linejoin="round"/>
<path d="M43.3251 48.5932L41.1314 46.3971C40.8963 46.1611 40.6026 45.9921 40.2806 45.9072L35.2579 44.5877C34.8119 44.4704 34.4247 44.1928 34.1705 43.808C33.9162 43.4231 33.8127 42.9581 33.8798 42.5018L34.4376 38.7049C34.485 38.3844 34.6146 38.0817 34.8138 37.8262C35.013 37.5707 35.2751 37.3712 35.5743 37.2471L42.711 34.2799C43.0408 34.143 43.4029 34.1032 43.7545 34.1651C44.1062 34.2269 44.4329 34.3879 44.6962 34.6291L50.4923 39.9283" stroke="white" stroke-width="3.75" stroke-linecap="round" stroke-linejoin="round"/>
<path d="M11.9351 43.6641L14.2601 42.1359C14.5176 41.9658 14.7291 41.7348 14.8758 41.4633C15.0226 41.1918 15.1001 40.8883 15.1015 40.5797L15.1507 32.0883C15.1532 31.7203 15.2632 31.361 15.4671 31.0547L20.3749 23.7188C20.5156 23.5098 20.697 23.3314 20.9083 23.1942C21.1195 23.0569 21.3562 22.9636 21.6043 22.9199C21.8523 22.8761 22.1067 22.8828 22.3521 22.9395C22.5975 22.9963 22.829 23.1018 23.0327 23.25L27.6757 26.2969C28.0666 26.5785 28.5504 26.7 29.028 26.6367L36.4015 25.6383C36.8567 25.5772 37.2737 25.3512 37.5733 25.0031L42.7718 18.9492C43.0639 18.6102 43.2252 18.178 43.2265 17.7305V12.1055" stroke="white" stroke-width="3.75" stroke-linecap="round" stroke-linejoin="round"/>
</g>
<defs>
<clipPath id="clip0_48_505">
<rect width="60" height="60" fill="white" transform="translate(0.101562 0.386719)"/>
</clipPath>
</defs>
</svg>
