<svg width="62" height="61" viewBox="0 0 62 61" fill="none" xmlns="http://www.w3.org/2000/svg">
<g clip-path="url(#clip0_48_516)">
<path d="M46.56 26.8452C52.185 21.2202 52.5365 14.5288 52.3607 11.5452C52.3315 11.0905 52.1376 10.6619 51.8154 10.3397C51.4932 10.0175 51.0647 9.82367 50.61 9.79443C47.6264 9.61864 40.9396 9.96552 35.31 15.5952L20.5186 30.3866L31.7686 41.6366L46.56 26.8452Z" stroke="white" stroke-width="3.75" stroke-linecap="round" stroke-linejoin="round"/>
<path d="M33.6434 17.2617H19.1942C18.6976 17.2619 18.2213 17.4592 17.87 17.8102L9.81921 25.8609C9.5734 26.1073 9.40101 26.4172 9.32131 26.7559C9.24162 27.0947 9.25777 27.4489 9.36797 27.779C9.47816 28.1091 9.67804 28.402 9.94525 28.625C10.2125 28.8479 10.5364 28.9921 10.8809 29.0414L20.5184 30.3867" stroke="white" stroke-width="3.75" stroke-linecap="round" stroke-linejoin="round"/>
<path d="M44.8936 28.5117V42.9609C44.8933 43.4576 44.6961 43.9338 44.3451 44.2852L36.2943 52.3359C36.048 52.5817 35.7381 52.7541 35.3993 52.8338C35.0606 52.9135 34.7063 52.8974 34.3763 52.7872C34.0462 52.677 33.7532 52.4771 33.5303 52.2099C33.3073 51.9427 33.1632 51.6187 33.1139 51.2742L31.7686 41.6367" stroke="white" stroke-width="3.75" stroke-linecap="round" stroke-linejoin="round"/>
<path d="M23.9311 44.4074C23.024 46.3973 19.9678 51.0121 11.1436 51.0121C11.1436 42.1879 15.7584 39.1316 17.7482 38.2246" stroke="white" stroke-width="3.75" stroke-linecap="round" stroke-linejoin="round"/>
</g>
<defs>
<clipPath id="clip0_48_516">
<rect width="60" height="60" fill="white" transform="translate(1.76855 0.386719)"/>
</clipPath>
</defs>
</svg>
