<svg width="65" height="65" viewBox="0 0 65 65" fill="none" xmlns="http://www.w3.org/2000/svg">
<path d="M8.22294 7.63472C9.98294 7.63472 11.5269 7.97872 12.8549 8.66672C14.1989 9.35472 15.2309 10.3387 15.9509 11.6187C16.6869 12.8827 17.0549 14.3547 17.0549 16.0347C17.0549 17.7147 16.6869 19.1867 15.9509 20.4507C15.2309 21.6987 14.1989 22.6667 12.8549 23.3547C11.5269 24.0427 9.98294 24.3867 8.22294 24.3867H2.36694V7.63472H8.22294ZM8.10294 21.5307C9.86294 21.5307 11.2229 21.0507 12.1829 20.0907C13.1429 19.1307 13.6229 17.7787 13.6229 16.0347C13.6229 14.2907 13.1429 12.9307 12.1829 11.9547C11.2229 10.9627 9.86294 10.4667 8.10294 10.4667H5.72694V21.5307H8.10294ZM18.3461 17.6907C18.3461 16.3467 18.6101 15.1547 19.1381 14.1147C19.6821 13.0747 20.4101 12.2747 21.3221 11.7147C22.2501 11.1547 23.2821 10.8747 24.4181 10.8747C25.4101 10.8747 26.2741 11.0747 27.0101 11.4747C27.7621 11.8747 28.3621 12.3787 28.8101 12.9867V11.0907H32.1941V24.3867H28.8101V22.4427C28.3781 23.0667 27.7781 23.5867 27.0101 24.0027C26.2581 24.4027 25.3861 24.6027 24.3941 24.6027C23.2741 24.6027 22.2501 24.3147 21.3221 23.7387C20.4101 23.1627 19.6821 22.3547 19.1381 21.3147C18.6101 20.2587 18.3461 19.0507 18.3461 17.6907ZM28.8101 17.7387C28.8101 16.9227 28.6501 16.2267 28.3301 15.6507C28.0101 15.0587 27.5781 14.6107 27.0341 14.3067C26.4901 13.9867 25.9061 13.8267 25.2821 13.8267C24.6581 13.8267 24.0821 13.9787 23.5541 14.2827C23.0261 14.5867 22.5941 15.0347 22.2581 15.6267C21.9381 16.2027 21.7781 16.8907 21.7781 17.6907C21.7781 18.4907 21.9381 19.1947 22.2581 19.8027C22.5941 20.3947 23.0261 20.8507 23.5541 21.1707C24.0981 21.4907 24.6741 21.6507 25.2821 21.6507C25.9061 21.6507 26.4901 21.4987 27.0341 21.1947C27.5781 20.8747 28.0101 20.4267 28.3301 19.8507C28.6501 19.2587 28.8101 18.5547 28.8101 17.7387ZM47.8357 11.0907L39.6037 30.6747H36.0277L38.9077 24.0507L33.5797 11.0907H37.3477L40.7797 20.3787L44.2597 11.0907H47.8357ZM1.83894 52.9787V50.3387L9.68694 39.1067H13.5989V50.0507H15.7109V52.9787H13.5989V56.3867H10.2389V52.9787H1.83894ZM10.4549 42.7067L5.53494 50.0507H10.4549V42.7067Z" fill="white"/>
</svg>
