<svg width="65" height="65" viewBox="0 0 65 65" fill="none" xmlns="http://www.w3.org/2000/svg">
<path d="M8.1995 7.63472C9.9595 7.63472 11.5035 7.97872 12.8315 8.66672C14.1755 9.35472 15.2075 10.3387 15.9275 11.6187C16.6635 12.8827 17.0315 14.3547 17.0315 16.0347C17.0315 17.7147 16.6635 19.1867 15.9275 20.4507C15.2075 21.6987 14.1755 22.6667 12.8315 23.3547C11.5035 24.0427 9.9595 24.3867 8.1995 24.3867H2.3435V7.63472H8.1995ZM8.0795 21.5307C9.8395 21.5307 11.1995 21.0507 12.1595 20.0907C13.1195 19.1307 13.5995 17.7787 13.5995 16.0347C13.5995 14.2907 13.1195 12.9307 12.1595 11.9547C11.1995 10.9627 9.8395 10.4667 8.0795 10.4667H5.7035V21.5307H8.0795ZM18.3226 17.6907C18.3226 16.3467 18.5866 15.1547 19.1146 14.1147C19.6586 13.0747 20.3866 12.2747 21.2986 11.7147C22.2266 11.1547 23.2586 10.8747 24.3946 10.8747C25.3866 10.8747 26.2506 11.0747 26.9866 11.4747C27.7386 11.8747 28.3386 12.3787 28.7866 12.9867V11.0907H32.1706V24.3867H28.7866V22.4427C28.3546 23.0667 27.7546 23.5867 26.9866 24.0027C26.2346 24.4027 25.3626 24.6027 24.3706 24.6027C23.2506 24.6027 22.2266 24.3147 21.2986 23.7387C20.3866 23.1627 19.6586 22.3547 19.1146 21.3147C18.5866 20.2587 18.3226 19.0507 18.3226 17.6907ZM28.7866 17.7387C28.7866 16.9227 28.6266 16.2267 28.3066 15.6507C27.9866 15.0587 27.5546 14.6107 27.0106 14.3067C26.4666 13.9867 25.8826 13.8267 25.2586 13.8267C24.6346 13.8267 24.0586 13.9787 23.5306 14.2827C23.0026 14.5867 22.5706 15.0347 22.2346 15.6267C21.9146 16.2027 21.7546 16.8907 21.7546 17.6907C21.7546 18.4907 21.9146 19.1947 22.2346 19.8027C22.5706 20.3947 23.0026 20.8507 23.5306 21.1707C24.0746 21.4907 24.6506 21.6507 25.2586 21.6507C25.8826 21.6507 26.4666 21.4987 27.0106 21.1947C27.5546 20.8747 27.9866 20.4267 28.3066 19.8507C28.6266 19.2587 28.7866 18.5547 28.7866 17.7387ZM47.8122 11.0907L39.5802 30.6747H36.0042L38.8842 24.0507L33.5562 11.0907H37.3242L40.7562 20.3787L44.2362 11.0907H47.8122ZM3.0155 52.5947C4.5515 51.3147 5.7755 50.2507 6.6875 49.4027C7.5995 48.5387 8.3595 47.6427 8.9675 46.7147C9.5755 45.7867 9.8795 44.8747 9.8795 43.9787C9.8795 43.1627 9.6875 42.5227 9.3035 42.0587C8.9195 41.5947 8.3275 41.3627 7.5275 41.3627C6.7275 41.3627 6.1115 41.6347 5.6795 42.1787C5.2475 42.7067 5.0235 43.4347 5.0075 44.3627H1.7435C1.8075 42.4427 2.3755 40.9867 3.4475 39.9947C4.5355 39.0027 5.9115 38.5067 7.5755 38.5067C9.3995 38.5067 10.7995 38.9947 11.7755 39.9707C12.7515 40.9307 13.2395 42.2027 13.2395 43.7867C13.2395 45.0347 12.9035 46.2267 12.2315 47.3627C11.5595 48.4987 10.7915 49.4907 9.9275 50.3387C9.0635 51.1707 7.9355 52.1787 6.5435 53.3627H13.6235V56.1467H1.7675V53.6507L3.0155 52.5947Z" fill="white"/>
</svg>
