<svg width="73" height="73" viewBox="0 0 73 73" fill="none" xmlns="http://www.w3.org/2000/svg">
<g filter="url(#filter0_d_48_435)">
<path d="M4.49219 32.3867C4.49219 14.7136 18.8191 0.386719 36.4922 0.386719V0.386719C54.1653 0.386719 68.4922 14.7136 68.4922 32.3867V32.3867C68.4922 50.0598 54.1653 64.3867 36.4922 64.3867V64.3867C18.8191 64.3867 4.49219 50.0598 4.49219 32.3867V32.3867Z" fill="#3B82F6" shape-rendering="crispEdges"/>
<path d="M12.0042 23.6347C13.7642 23.6347 15.3082 23.9787 16.6362 24.6667C17.9802 25.3547 19.0122 26.3387 19.7322 27.6187C20.4682 28.8827 20.8362 30.3547 20.8362 32.0347C20.8362 33.7147 20.4682 35.1867 19.7322 36.4507C19.0122 37.6987 17.9802 38.6667 16.6362 39.3547C15.3082 40.0427 13.7642 40.3867 12.0042 40.3867H6.14819V23.6347H12.0042ZM11.8842 37.5307C13.6442 37.5307 15.0042 37.0507 15.9642 36.0907C16.9242 35.1307 17.4042 33.7787 17.4042 32.0347C17.4042 30.2907 16.9242 28.9307 15.9642 27.9547C15.0042 26.9627 13.6442 26.4667 11.8842 26.4667H9.50819V37.5307H11.8842ZM22.1273 33.6907C22.1273 32.3467 22.3913 31.1547 22.9193 30.1147C23.4633 29.0747 24.1913 28.2747 25.1033 27.7147C26.0313 27.1547 27.0633 26.8747 28.1993 26.8747C29.1913 26.8747 30.0553 27.0747 30.7913 27.4747C31.5433 27.8747 32.1433 28.3787 32.5913 28.9867V27.0907H35.9753V40.3867H32.5913V38.4427C32.1593 39.0667 31.5593 39.5867 30.7913 40.0027C30.0393 40.4027 29.1673 40.6027 28.1753 40.6027C27.0553 40.6027 26.0313 40.3147 25.1033 39.7387C24.1913 39.1627 23.4633 38.3547 22.9193 37.3147C22.3913 36.2587 22.1273 35.0507 22.1273 33.6907ZM32.5913 33.7387C32.5913 32.9227 32.4313 32.2267 32.1113 31.6507C31.7913 31.0587 31.3593 30.6107 30.8153 30.3067C30.2713 29.9867 29.6873 29.8267 29.0633 29.8267C28.4393 29.8267 27.8633 29.9787 27.3353 30.2827C26.8073 30.5867 26.3753 31.0347 26.0393 31.6267C25.7193 32.2027 25.5593 32.8907 25.5593 33.6907C25.5593 34.4907 25.7193 35.1947 26.0393 35.8027C26.3753 36.3947 26.8073 36.8507 27.3353 37.1707C27.8793 37.4907 28.4553 37.6507 29.0633 37.6507C29.6873 37.6507 30.2713 37.4987 30.8153 37.1947C31.3593 36.8747 31.7913 36.4267 32.1113 35.8507C32.4313 35.2587 32.5913 34.5547 32.5913 33.7387ZM51.6169 27.0907L43.3849 46.6747H39.8089L42.6889 40.0507L37.3609 27.0907H41.1289L44.5609 36.3787L48.0409 27.0907H51.6169ZM57.6349 25.9867V22.8907H63.4189V40.3867H59.9629V25.9867H57.6349Z" fill="white"/>
</g>
<defs>
<filter id="filter0_d_48_435" x="0.492188" y="0.386719" width="72" height="72" filterUnits="userSpaceOnUse" color-interpolation-filters="sRGB">
<feFlood flood-opacity="0" result="BackgroundImageFix"/>
<feColorMatrix in="SourceAlpha" type="matrix" values="0 0 0 0 0 0 0 0 0 0 0 0 0 0 0 0 0 0 127 0" result="hardAlpha"/>
<feOffset dy="4"/>
<feGaussianBlur stdDeviation="2"/>
<feComposite in2="hardAlpha" operator="out"/>
<feColorMatrix type="matrix" values="0 0 0 0 0 0 0 0 0 0 0 0 0 0 0 0 0 0 0.25 0"/>
<feBlend mode="normal" in2="BackgroundImageFix" result="effect1_dropShadow_48_435"/>
<feBlend mode="normal" in="SourceGraphic" in2="effect1_dropShadow_48_435" result="shape"/>
</filter>
</defs>
</svg>
