<svg width="65" height="65" viewBox="0 0 65 65" fill="none" xmlns="http://www.w3.org/2000/svg">
<path d="M0.484375 32.3867C0.484375 14.7136 14.8113 0.386719 32.4844 0.386719V0.386719C50.1575 0.386719 64.4844 14.7136 64.4844 32.3867V32.3867C64.4844 50.0598 50.1575 64.3867 32.4844 64.3867V64.3867C14.8113 64.3867 0.484375 50.0598 0.484375 32.3867V32.3867Z" fill="#EAB308"/>
<path d="M7.99638 7.63472C9.75638 7.63472 11.3004 7.97872 12.6284 8.66672C13.9724 9.35472 15.0044 10.3387 15.7244 11.6187C16.4604 12.8827 16.8284 14.3547 16.8284 16.0347C16.8284 17.7147 16.4604 19.1867 15.7244 20.4507C15.0044 21.6987 13.9724 22.6667 12.6284 23.3547C11.3004 24.0427 9.75638 24.3867 7.99638 24.3867H2.14038V7.63472H7.99638ZM7.87638 21.5307C9.63638 21.5307 10.9964 21.0507 11.9564 20.0907C12.9164 19.1307 13.3964 17.7787 13.3964 16.0347C13.3964 14.2907 12.9164 12.9307 11.9564 11.9547C10.9964 10.9627 9.63638 10.4667 7.87638 10.4667H5.50038V21.5307H7.87638ZM18.1195 17.6907C18.1195 16.3467 18.3835 15.1547 18.9115 14.1147C19.4555 13.0747 20.1835 12.2747 21.0955 11.7147C22.0235 11.1547 23.0555 10.8747 24.1915 10.8747C25.1835 10.8747 26.0475 11.0747 26.7835 11.4747C27.5355 11.8747 28.1355 12.3787 28.5835 12.9867V11.0907H31.9675V24.3867H28.5835V22.4427C28.1515 23.0667 27.5515 23.5867 26.7835 24.0027C26.0315 24.4027 25.1595 24.6027 24.1675 24.6027C23.0475 24.6027 22.0235 24.3147 21.0955 23.7387C20.1835 23.1627 19.4555 22.3547 18.9115 21.3147C18.3835 20.2587 18.1195 19.0507 18.1195 17.6907ZM28.5835 17.7387C28.5835 16.9227 28.4235 16.2267 28.1035 15.6507C27.7835 15.0587 27.3515 14.6107 26.8075 14.3067C26.2635 13.9867 25.6795 13.8267 25.0555 13.8267C24.4315 13.8267 23.8555 13.9787 23.3275 14.2827C22.7995 14.5867 22.3675 15.0347 22.0315 15.6267C21.7115 16.2027 21.5515 16.8907 21.5515 17.6907C21.5515 18.4907 21.7115 19.1947 22.0315 19.8027C22.3675 20.3947 22.7995 20.8507 23.3275 21.1707C23.8715 21.4907 24.4475 21.6507 25.0555 21.6507C25.6795 21.6507 26.2635 21.4987 26.8075 21.1947C27.3515 20.8747 27.7835 20.4267 28.1035 19.8507C28.4235 19.2587 28.5835 18.5547 28.5835 17.7387ZM47.6091 11.0907L39.3771 30.6747H35.8011L38.6811 24.0507L33.3531 11.0907H37.1211L40.5531 20.3787L44.0331 11.0907H47.6091ZM1.80438 43.4987C1.88438 41.8987 2.44438 40.6667 3.48438 39.8027C4.54038 38.9227 5.92438 38.4827 7.63638 38.4827C8.80438 38.4827 9.80438 38.6907 10.6364 39.1067C11.4684 39.5067 12.0924 40.0587 12.5084 40.7627C12.9404 41.4507 13.1564 42.2347 13.1564 43.1147C13.1564 44.1227 12.8924 44.9787 12.3644 45.6827C11.8524 46.3707 11.2364 46.8347 10.5164 47.0747V47.1707C11.4444 47.4587 12.1644 47.9707 12.6764 48.7067C13.2044 49.4427 13.4684 50.3867 13.4684 51.5387C13.4684 52.4987 13.2444 53.3547 12.7964 54.1067C12.3644 54.8587 11.7164 55.4507 10.8524 55.8827C10.0044 56.2987 8.98038 56.5067 7.78038 56.5067C5.97238 56.5067 4.50038 56.0507 3.36438 55.1387C2.22838 54.2267 1.62838 52.8827 1.56438 51.1067H4.82838C4.86038 51.8907 5.12438 52.5227 5.62038 53.0027C6.13238 53.4667 6.82838 53.6987 7.70838 53.6987C8.52438 53.6987 9.14838 53.4747 9.58038 53.0267C10.0284 52.5627 10.2524 51.9707 10.2524 51.2507C10.2524 50.2907 9.94838 49.6027 9.34038 49.1867C8.73238 48.7707 7.78838 48.5627 6.50838 48.5627H5.81238V45.8027H6.50838C8.78038 45.8027 9.91638 45.0427 9.91638 43.5227C9.91638 42.8347 9.70838 42.2987 9.29238 41.9147C8.89238 41.5307 8.30838 41.3387 7.54037 41.3387C6.78838 41.3387 6.20438 41.5467 5.78838 41.9627C5.38838 42.3627 5.15638 42.8747 5.09238 43.4987H1.80438Z" fill="white"/>
</svg>
