<svg width="65" height="66" viewBox="0 0 65 66" fill="none" xmlns="http://www.w3.org/2000/svg">
<path d="M0.6875 32.3867C0.6875 14.7136 15.0144 0.386719 32.6875 0.386719V0.386719C50.3606 0.386719 64.6875 14.7136 64.6875 32.3867V33.3867C64.6875 51.0598 50.3606 65.3867 32.6875 65.3867V65.3867C15.0144 65.3867 0.6875 51.0598 0.6875 33.3867V32.3867Z" fill="#3B82F6"/>
<path d="M10.025 24.248C11.785 24.248 13.329 24.592 14.657 25.28C16.001 25.968 17.033 26.952 17.753 28.232C18.489 29.496 18.857 30.968 18.857 32.648C18.857 34.328 18.489 35.8 17.753 37.064C17.033 38.312 16.001 39.28 14.657 39.968C13.329 40.656 11.785 41 10.025 41H4.16897V24.248H10.025ZM9.90497 38.144C11.665 38.144 13.025 37.664 13.985 36.704C14.945 35.744 15.425 34.392 15.425 32.648C15.425 30.904 14.945 29.544 13.985 28.568C13.025 27.576 11.665 27.08 9.90497 27.08H7.52897V38.144H9.90497ZM20.1481 34.304C20.1481 32.96 20.4121 31.768 20.9401 30.728C21.4841 29.688 22.2121 28.888 23.1241 28.328C24.0521 27.768 25.0841 27.488 26.2201 27.488C27.2121 27.488 28.0761 27.688 28.8121 28.088C29.5641 28.488 30.1641 28.992 30.6121 29.6V27.704H33.9961V41H30.6121V39.056C30.1801 39.68 29.5801 40.2 28.8121 40.616C28.0601 41.016 27.1881 41.216 26.1961 41.216C25.0761 41.216 24.0521 40.928 23.1241 40.352C22.2121 39.776 21.4841 38.968 20.9401 37.928C20.4121 36.872 20.1481 35.664 20.1481 34.304ZM30.6121 34.352C30.6121 33.536 30.4521 32.84 30.1321 32.264C29.8121 31.672 29.3801 31.224 28.8361 30.92C28.2921 30.6 27.7081 30.44 27.0841 30.44C26.4601 30.44 25.8841 30.592 25.3561 30.896C24.8281 31.2 24.3961 31.648 24.0601 32.24C23.7401 32.816 23.5801 33.504 23.5801 34.304C23.5801 35.104 23.7401 35.808 24.0601 36.416C24.3961 37.008 24.8281 37.464 25.3561 37.784C25.9001 38.104 26.4761 38.264 27.0841 38.264C27.7081 38.264 28.2921 38.112 28.8361 37.808C29.3801 37.488 29.8121 37.04 30.1321 36.464C30.4521 35.872 30.6121 35.168 30.6121 34.352ZM49.6377 27.704L41.4057 47.288H37.8297L40.7097 40.664L35.3817 27.704H39.1497L42.5817 36.992L46.0617 27.704H49.6377ZM55.6557 26.6V23.504H61.4397V41H57.9837V26.6H55.6557Z" fill="white"/>
</svg>
