<svg width="62" height="61" viewBox="0 0 62 61" fill="none" xmlns="http://www.w3.org/2000/svg">
<g clip-path="url(#clip0_48_413)">
<path d="M31.7686 52.8867C44.195 52.8867 54.2686 42.8131 54.2686 30.3867C54.2686 17.9603 44.195 7.88672 31.7686 7.88672C19.3421 7.88672 9.26855 17.9603 9.26855 30.3867C9.26855 42.8131 19.3421 52.8867 31.7686 52.8867Z" stroke="white" stroke-width="3.75" stroke-linecap="round" stroke-linejoin="round"/>
<path d="M44.9921 48.5932L42.7983 46.3971C42.5633 46.1611 42.2696 45.9921 41.9476 45.9072L36.9249 44.5877C36.4789 44.4704 36.0917 44.1928 35.8375 43.808C35.5832 43.4231 35.4797 42.9581 35.5468 42.5018L36.1046 38.7049C36.152 38.3844 36.2816 38.0817 36.4808 37.8262C36.68 37.5707 36.942 37.3712 37.2413 37.2471L44.378 34.2799C44.7078 34.143 45.0699 34.1032 45.4215 34.1651C45.7732 34.2269 46.0999 34.3879 46.3632 34.6291L52.1593 39.9283" stroke="white" stroke-width="3.75" stroke-linecap="round" stroke-linejoin="round"/>
<path d="M13.6021 43.6641L15.9271 42.1359C16.1845 41.9658 16.3961 41.7348 16.5428 41.4633C16.6896 41.1918 16.7671 40.8883 16.7685 40.5797L16.8177 32.0883C16.8202 31.7203 16.9302 31.361 17.1341 31.0547L22.0419 23.7188C22.1826 23.5098 22.364 23.3314 22.5753 23.1942C22.7865 23.0569 23.0232 22.9636 23.2712 22.9199C23.5193 22.8761 23.7737 22.8828 24.0191 22.9395C24.2645 22.9963 24.496 23.1018 24.6997 23.25L29.3427 26.2969C29.7336 26.5785 30.2174 26.7 30.695 26.6367L38.0685 25.6383C38.5237 25.5772 38.9407 25.3512 39.2403 25.0031L44.4388 18.9492C44.7309 18.6102 44.8922 18.178 44.8935 17.7305V12.1055" stroke="white" stroke-width="3.75" stroke-linecap="round" stroke-linejoin="round"/>
</g>
<defs>
<clipPath id="clip0_48_413">
<rect width="60" height="60" fill="white" transform="translate(1.76855 0.386719)"/>
</clipPath>
</defs>
</svg>
