<svg width="61" height="61" viewBox="0 0 61 61" fill="none" xmlns="http://www.w3.org/2000/svg">
<g clip-path="url(#clip0_48_399)">
<path d="M45.1016 28.5117C47.285 28.5101 49.4387 29.0177 51.3916 29.9941C53.3445 30.9706 55.0428 32.389 56.3516 34.1367" stroke="white" stroke-width="3.75" stroke-linecap="round" stroke-linejoin="round"/>
<path d="M3.85156 34.1367C5.1603 32.389 6.85859 30.9706 8.81151 29.9941C10.7644 29.0177 12.9181 28.5101 15.1016 28.5117" stroke="white" stroke-width="3.75" stroke-linecap="round" stroke-linejoin="round"/>
<path d="M30.1016 43.5117C35.2792 43.5117 39.4766 39.3144 39.4766 34.1367C39.4766 28.959 35.2792 24.7617 30.1016 24.7617C24.9239 24.7617 20.7266 28.959 20.7266 34.1367C20.7266 39.3144 24.9239 43.5117 30.1016 43.5117Z" stroke="white" stroke-width="3.75" stroke-linecap="round" stroke-linejoin="round"/>
<path d="M16.9766 51.0117C18.3226 48.7276 20.2413 46.8343 22.5432 45.519C24.8451 44.2036 27.4504 43.5117 30.1016 43.5117C32.7528 43.5117 35.358 44.2036 37.6599 45.519C39.9618 46.8343 41.8806 48.7276 43.2266 51.0117" stroke="white" stroke-width="3.75" stroke-linecap="round" stroke-linejoin="round"/>
<path d="M37.8359 19.1367C38.1866 17.7787 38.911 16.5462 39.927 15.5791C40.9429 14.6121 42.2097 13.9494 43.5834 13.6662C44.9571 13.383 46.3827 13.4907 47.6983 13.977C49.0139 14.4633 50.1667 15.3088 51.0259 16.4174C51.8851 17.5261 52.4162 18.8534 52.5589 20.2487C52.7016 21.644 52.4501 23.0514 51.8331 24.311C51.2161 25.5706 50.2583 26.6319 49.0684 27.3745C47.8784 28.117 46.5042 28.511 45.1016 28.5117" stroke="white" stroke-width="3.75" stroke-linecap="round" stroke-linejoin="round"/>
<path d="M15.1017 28.5117C13.6991 28.511 12.3248 28.117 11.1349 27.3745C9.94499 26.6319 8.98714 25.5706 8.37013 24.311C7.75313 23.0514 7.50169 21.644 7.64438 20.2487C7.78707 18.8534 8.31817 17.5261 9.17736 16.4174C10.0365 15.3088 11.1894 14.4633 12.505 13.977C13.8206 13.4907 15.2461 13.383 16.6199 13.6662C17.9936 13.9494 19.2603 14.6121 20.2763 15.5791C21.2922 16.5462 22.0167 17.7787 22.3673 19.1367" stroke="white" stroke-width="3.75" stroke-linecap="round" stroke-linejoin="round"/>
</g>
<defs>
<clipPath id="clip0_48_399">
<rect width="60" height="60" fill="white" transform="translate(0.101562 0.386719)"/>
</clipPath>
</defs>
</svg>
