<svg width="62" height="61" viewBox="0 0 62 61" fill="none" xmlns="http://www.w3.org/2000/svg">
<g clip-path="url(#clip0_48_383)">
<path d="M46.2265 26.8452C51.8515 21.2202 52.203 14.5288 52.0272 11.5452C51.998 11.0905 51.8042 10.6619 51.4819 10.3397C51.1597 10.0175 50.7312 9.82367 50.2765 9.79443C47.2929 9.61864 40.6062 9.96552 34.9765 15.5952L20.1851 30.3866L31.4351 41.6366L46.2265 26.8452Z" stroke="white" stroke-width="3.75" stroke-linecap="round" stroke-linejoin="round"/>
<path d="M33.3099 17.2617H18.8607C18.3641 17.2619 17.8878 17.4592 17.5365 17.8102L9.48571 25.8609C9.23991 26.1073 9.06751 26.4172 8.98782 26.7559C8.90812 27.0947 8.92428 27.4489 9.03447 27.779C9.14466 28.1091 9.34455 28.402 9.61175 28.625C9.87896 28.8479 10.2029 28.9921 10.5474 29.0414L20.1849 30.3867" stroke="white" stroke-width="3.75" stroke-linecap="round" stroke-linejoin="round"/>
<path d="M44.5601 28.5117V42.9609C44.5598 43.4576 44.3626 43.9338 44.0116 44.2852L35.9608 52.3359C35.7145 52.5817 35.4046 52.7541 35.0659 52.8338C34.7271 52.9135 34.3729 52.8974 34.0428 52.7872C33.7127 52.677 33.4197 52.4771 33.1968 52.2099C32.9738 51.9427 32.8297 51.6187 32.7804 51.2742L31.4351 41.6367" stroke="white" stroke-width="3.75" stroke-linecap="round" stroke-linejoin="round"/>
<path d="M23.5976 44.4074C22.6905 46.3973 19.6343 51.0121 10.8101 51.0121C10.8101 42.1879 15.4249 39.1316 17.4147 38.2246" stroke="white" stroke-width="3.75" stroke-linecap="round" stroke-linejoin="round"/>
</g>
<defs>
<clipPath id="clip0_48_383">
<rect width="60" height="60" fill="white" transform="translate(1.43506 0.386719)"/>
</clipPath>
</defs>
</svg>
